<svg id="Group_59" data-name="Group 59" xmlns="http://www.w3.org/2000/svg" xmlns:xlink="http://www.w3.org/1999/xlink" width="120" height="50" viewBox="0 6 236.245 50.69">
  <g id="Group_58" class="aviemuah" data-name="Group 58" transform="translate(0 0)" clip-path="url(#clip-path)">
    <path id="Path_60" data-name="Path 60" d="M31.963,43.948,19.609,9.724H10.322v.547c5.132,0,7.692,1.2,6.8,3.987L7.851,42.8C6.206,47.934,6.028,49.03,0,49.03v.548H13.859V49.03c-6.178,0-6.506-1.1-4.912-6.227l1.994-6.326c.249-.748.945-1.845,3.087-1.845H25.489l-.238-.653c-1.2,0-2.723.005-2.8.005H14.178c-1.843,0-1.942-1.295-1.694-2.092l5.679-17.586L24.49,31.892l.761,2.086c.758,0,1.384-.007,1.429-.012a3.1,3.1,0,0,0,.141.664H25.489l.745,2.044,2.591,7.273c1.694,4.832.419,5.082-5.112,5.082v.548H39.664V49.03c-5.679,0-5.959-.3-7.7-5.082" transform="translate(0 0.564)" fill="#1a1818"/>
    <path id="Path_61" data-name="Path 61" d="M25.3,32.64c-.044,0-.672.006-1.429.011l.238.653h1.332a3.091,3.091,0,0,1-.141-.663" transform="translate(1.384 1.893)" fill="#1a1818"/>
    <path id="Path_62" data-name="Path 62" d="M48.263,24.4c4.683,0,5.629.348,3.985,5.082l-5.53,16.14L40.84,29.48C39.1,24.746,40.292,24.4,44.826,24.4V23.85h-12.6V24.4c4.683,0,4.284.449,5.978,5.082l7.274,19.777h.8L53.046,29.48C54.69,24.7,54.89,24.4,59.023,24.4V23.85H48.263Z" transform="translate(1.869 1.383)" fill="#1a1818"/>
    <path id="Path_63" data-name="Path 63" d="M68.866,43.129V23.85H61.244V24.4c4.533,0,4.981,0,4.981,5.083V43.129c0,4.982-.448,5.082-4.981,5.082v.548h12.6V48.21c-4.683,0-4.981-.1-4.981-5.082" transform="translate(3.552 1.383)" fill="#1a1818"/>
    <path id="Path_64" data-name="Path 64" d="M96.634,34.138c-.1-6.077-3.886-10.759-10.263-10.759-6.526,0-10.86,5.181-10.86,12.9s4.335,13.054,11.258,13.054c4.783,0,9.118-4.435,9.466-8.621h-.748c-.347,3.288-3.935,7.823-8.718,7.873-6.027.049-8.119-6.426-8.119-12.306,0-.7.05-1.443.1-2.143ZM86.371,23.977c5.082,0,6.875,5.28,7.074,9.415h-14.6c.6-4.882,2.84-9.415,7.522-9.415" transform="translate(4.379 1.356)" fill="#1a1818"/>
    <path id="Path_65" data-name="Path 65" d="M141.309,43.156v-12.6c0-6.377-3.388-7.173-5.579-7.173-4.884,0-7.475,7.372-8.67,14.346h-.148V30.552c0-6.377-3.389-7.173-5.579-7.173-4.884,0-7.474,7.372-8.669,14.346h-.15V23.877h-7.621v.547c4.532,0,4.981,0,4.981,5.083V43.156c0,4.982-.449,5.082-4.981,5.082v.548h12.6v-.548c-3.984,0-4.782-.049-4.93-3.138.3-7.273,2.589-20.475,8.019-20.475,2.044,0,3.686,1,3.686,5.928v12.6c0,4.982-.646,5.082-4.981,5.082v.548h12.6v-.548c-4.036,0-4.834-.049-4.933-3.04.25-7.223,2.591-20.574,8.022-20.574,2.042,0,3.688,1,3.688,5.928v12.6c0,4.982-.649,5.082-4.983,5.082v.548h12.6v-.548c-4.831,0-4.98-.1-4.98-5.082" transform="translate(6.083 1.356)" fill="#1a1818"/>
    <path id="Path_66" data-name="Path 66" d="M166.968,43.129V23.85h-7.623V24.4c3.985,0,4.783.051,4.932,3.139-.3,7.273-2.641,20.474-8.369,20.474-1.695,0-4.335-.5-4.335-5.928V23.85h-7.622V24.4c4.833,0,4.981.1,4.981,5.083v12.6c0,6.875,4.384,7.174,6.127,7.174,5.182,0,7.874-7.373,9.118-14.347h.149V48.758h7.623V48.21c-4.533,0-4.982,0-4.982-5.082m-2.641-9.215v0Z" transform="translate(8.348 1.383)" fill="#1a1818"/>
    <path id="Path_67" data-name="Path 67" d="M219.794,43.948v-12.6c0-6.377-3.387-7.173-5.579-7.173-4.783,0-7.374,6.973-8.568,13.8h-.25V9.724h-7.623v.547c4.534,0,4.981,0,4.981,5.083V43.948c0,4.982-.448,5.082-4.981,5.082v.548h12.6V49.03c-3.984,0-4.782-.049-4.932-3.138.3-7.273,2.591-20.475,8.022-20.475,2.042,0,3.686,1,3.686,5.928v12.6c0,4.982-.648,5.082-4.982,5.082v.548h12.6V49.03c-4.831,0-4.981-.1-4.981-5.082" transform="translate(11.47 0.564)" fill="#1a1818"/>
    <path id="Path_68" data-name="Path 68" d="M66.514,16.9l.595.675.649-.727A11.074,11.074,0,0,1,68.826,15.8l.681-.582-.685-.6a12.244,12.244,0,0,1-.942-.917l-.772-.839-.638.71a11.223,11.223,0,0,1-.881.871l-.88.773.727.618A10.865,10.865,0,0,1,66.514,16.9" transform="translate(3.753 0.746)" fill="#1a1818"/>
    <path id="Path_69" data-name="Path 69" d="M193.593,48.392c-3.24,0-2.74-5.282-2.74-10.312V31.6c0-5.979-3.039-8.269-7.921-8.269-5.43,0-8.717,3.537-10.163,5.082l3.192,4.7.539-.3c-3.327-5.108,1.5-8.928,6.282-8.928,4.334,0,5.431,3.436,5.431,7.72v1.546l-14.9,4.633c0,4.633,1.3,11.409,6.826,11.409,3.985,0,6.426-5.332,7.873-9.767h.2V42.96c0,3.487,1.3,6.328,4.832,6.328,2.609,0,4.173-1.685,4.979-4.62l-.755-.189c-.639,2.294-1.774,3.914-3.674,3.914m-5.381-11.858c-1.345,4.535-3.239,10.959-6.974,10.959-4.831,0-5.231-8.07-5.231-9.662l12.205-3.988Z" transform="translate(10.019 1.353)" fill="#1a1818"/>
    <path id="Path_70" data-name="Path 70" d="M20.469,5.3,14.585,0,13.278,1.505,20.2,5.6Z" transform="translate(0.77 0)" fill="#1a1818"/>
  </g>
</svg>
