<svg xmlns="http://www.w3.org/2000/svg" xmlns:xlink="http://www.w3.org/1999/xlink" width="130" height="50" viewBox="0 0 250.989 38.214">
  <g id="Group_62" class="bedameun" data-name="Group 62" transform="translate(0 0)">
    <path id="Path_71" data-name="Path 71" d="M52.262,16.374H60.4v7.773H52.262ZM60.4,2.733v8.184H52.262V2.733h-6V29.6H66.4V2.733ZM73,38.2h6V0H73Z" transform="translate(-18.953 -0.002)" fill="#1a1818"/>
    <g id="Group_61" data-name="Group 61" transform="translate(0 0.001)">
      <g id="Group_60" data-name="Group 60" clip-path="url(#clip-path)">
        <path id="Path_72" data-name="Path 72" d="M206.7,18.234a203.662,203.662,0,0,1-21.825.864V.546h19.1V5.457H190.921v8.184a143.233,143.233,0,0,0,15.779-.824Zm13.64-4.593h-5.456v7.4h-6V0h6V8.185h5.456Z" transform="translate(-75.746 -0.001)" fill="#1a1818"/>
        <path id="Path_73" data-name="Path 73" d="M191.349,54.24h26.188V39.163H191.349Zm20.187-4.91H197.352V44.074h14.184Z" transform="translate(-78.398 -16.046)" fill="#1a1818"/>
        <path id="Path_74" data-name="Path 74" d="M353.96,57.131H324.574V46.218h6v6H353.96Z" transform="translate(-132.982 -18.937)" fill="#1a1818"/>
        <path id="Path_75" data-name="Path 75" d="M339.1,0c-9.37,0-14.526,3.723-14.526,8.552,0,4.418,5.033,8.347,14.526,8.347,9.125,0,14.239-3.928,14.239-8.347C353.338,3.807,348.1,0,339.1,0m-.008,11.942c-5.119,0-7.677-1.452-7.677-3.4,0-2.329,2.6-3.628,7.677-3.628,4.43,0,7.446,1.413,7.446,3.628,0,1.872-2.673,3.4-7.446,3.4" transform="translate(-132.981 -0.001)" fill="#1a1818"/>
        <rect id="Rectangle_155" data-name="Rectangle 155" width="35.125" height="5.457" transform="translate(188.582 19.097)" fill="#1a1818"/>
        <rect id="Rectangle_156" data-name="Rectangle 156" width="5.456" height="27.281" transform="translate(0 0.001)" fill="#1a1818"/>
        <rect id="Rectangle_157" data-name="Rectangle 157" width="19.199" height="5.457" transform="translate(0 32.738)" fill="#1a1818"/>
        <rect id="Rectangle_158" data-name="Rectangle 158" width="5.456" height="10.912" transform="translate(245.532 27.284)" fill="#1a1818"/>
        <rect id="Rectangle_159" data-name="Rectangle 159" width="24.553" height="5.456" transform="translate(226.435 0.002)" fill="#1a1818"/>
        <path id="Path_76" data-name="Path 76" d="M391.286,58.764c0-2.33-2.6-3.628-7.677-3.628H383.6V50.221c9.37,0,14.526,3.723,14.526,8.552h-6.841v-.008" transform="translate(-157.166 -20.576)" fill="#1a1818"/>
        <path id="Path_77" data-name="Path 77" d="M407.876,18.489c.008,1.866,2.676,3.389,7.438,3.391v4.957c-9.125,0-14.239-3.928-14.239-8.347Z" transform="translate(-164.325 -7.575)" fill="#1a1818"/>
        <path id="Path_78" data-name="Path 78" d="M110.929,3.427c5.111,0,7.669-1.447,7.676-3.391h6.841c0,4.419-5.033,8.347-14.526,8.347V3.427h.008" transform="translate(-45.446 -0.015)" fill="#1a1818"/>
        <path id="Path_79" data-name="Path 79" d="M260.618,27.032v.008h6.8c0-4.747-5.238-8.552-14.24-8.552V23.4c4.426,0,7.439,1.414,7.439,3.629" transform="translate(-103.73 -7.575)" fill="#1a1818"/>
        <rect id="Rectangle_160" data-name="Rectangle 160" width="5.456" height="13.68" transform="translate(13.752 0.002)" fill="#1a1818"/>
        <rect id="Rectangle_161" data-name="Rectangle 161" width="5.456" height="13.64" transform="translate(149.449 24.574)" fill="#1a1818"/>
        <rect id="Rectangle_162" data-name="Rectangle 162" width="5.456" height="19.098" transform="translate(68.204 19.097)" fill="#1a1818"/>
        <rect id="Rectangle_163" data-name="Rectangle 163" width="5.448" height="5.457" transform="translate(13.752 19.097)" fill="#1a1818"/>
        <rect id="Rectangle_164" data-name="Rectangle 164" width="24.553" height="5.456" transform="translate(147.319)" fill="#1a1818"/>
        <rect id="Rectangle_165" data-name="Rectangle 165" width="24.553" height="5.457" transform="translate(79.116 32.738)" fill="#1a1818"/>
        <path id="Path_80" data-name="Path 80" d="M281.924,36.976V53.344h5.456V36.976Z" transform="translate(-115.508 -15.15)" fill="#1a1818"/>
        <rect id="Rectangle_166" data-name="Rectangle 166" width="19.097" height="5.456" transform="translate(84.568 0.021)" fill="#1a1818"/>
        <path id="Path_81" data-name="Path 81" d="M144.69,22.537c-1.8.027-3.8.041-6.046.041v5.416a203.648,203.648,0,0,0,21.825-.864V21.713a143.214,143.214,0,0,1-15.778.824" transform="translate(-56.804 -8.896)" fill="#1a1818"/>
        <rect id="Rectangle_167" data-name="Rectangle 167" width="5.457" height="38.193" transform="translate(177.328)" fill="#1a1818"/>
      </g>
    </g>
  </g>
</svg>
