<svg xmlns="http://www.w3.org/2000/svg" width="45" viewBox="0 0 66 65.705">
  <g id="Group_42" data-name="Group 42" transform="translate(-1822 -20)">
    <ellipse id="Ellipse_1" data-name="Ellipse 1" cx="33" cy="32.852" rx="33" ry="32.852" transform="translate(1822 20)" fill="#73bba0"/>
    <g id="도유" transform="translate(1835.338 28.997)">
      <path id="Path_1" data-name="Path 1" d="M75.926,69.361A15.181,15.181,0,0,1,63.845,87.022a1.03,1.03,0,0,1-1.225-1.011V73.243H44.428a1.03,1.03,0,0,1,0-2.058h23.5a1.03,1.03,0,0,1,0,2.058H64.679V84.7a13.1,13.1,0,0,0-.672-25.335V57.28a1.016,1.016,0,0,1,.221.022,15.5,15.5,0,0,1,2.331.711,15.214,15.214,0,0,1,9.367,11.348Z" transform="translate(-36.518 -47.779)" fill="#fff"/>
      <path id="Path_2" data-name="Path 2" d="M71.906.2a1.03,1.03,0,0,1,.312,1.278l-2.487,5.1a1.03,1.03,0,1,1-1.849-.9c.212-.433.423-.866.635-1.3H52.34l.637,1.3a1.03,1.03,0,0,1-1.852.9q-1.24-2.549-2.487-5.1A1.028,1.028,0,0,1,48.952.2a.925.925,0,0,1,.166-.1A1.031,1.031,0,0,1,50.494.58c.272.584.559,1.161.842,1.744H69.52c.285-.58.565-1.161.849-1.741A1.031,1.031,0,0,1,71.745.11,1.161,1.161,0,0,1,71.906.2Z" transform="translate(-40.768 0)" fill="#fff"/>
      <path id="Path_3" data-name="Path 3" d="M85.218,248.251v4.643a1.03,1.03,0,1,1-2.058,0V251.6H69.884v1.29a1.03,1.03,0,1,1-2.058,0v-4.643a1.03,1.03,0,0,1,2.058,0v1.287H83.161v-1.29a1.03,1.03,0,0,1,2.058,0Z" transform="translate(-56.861 -206.257)" fill="#fff"/>
      <path id="Path_4" data-name="Path 4" d="M162.321,59.329h0c-.071-.02-.146-.038-.221-.055a1.03,1.03,0,0,1,.221-2.035Z" transform="translate(-134.833 -47.746)" fill="#fff"/>
      <path id="Path_5" data-name="Path 5" d="M74.1,58.308a1.031,1.031,0,0,1-.811,1.007c-.071.017-.146.032-.217.051V57.28A1.031,1.031,0,0,1,74.1,58.308Z" transform="translate(-61.236 -47.779)" fill="#fff"/>
      <path id="Path_6" data-name="Path 6" d="M73.287,223.791a1.03,1.03,0,0,1-.217,2.035V223.74A1.774,1.774,0,0,0,73.287,223.791Z" transform="translate(-61.236 -186.638)" fill="#fff"/>
      <path id="Path_7" data-name="Path 7" d="M11.834,84.881v2.086a1,1,0,0,1-.221-.025,15.219,15.219,0,0,1-2.335-.708,15.636,15.636,0,0,1-2.724-1.408A15.171,15.171,0,0,1,11.614,57.3a.994.994,0,0,1,.221-.022v2.086a13.1,13.1,0,0,0,0,25.516Z" transform="translate(0 -47.779)" fill="#fff"/>
      <path id="Path_8" data-name="Path 8" d="M89.831,166.43v-.907h-.8v.907H88.67v-2.01h.358v.788h.8v-.788h.352v2.01Z" transform="translate(-74.249 -137.154)" fill="#fff"/>
      <path id="Path_9" data-name="Path 9" d="M99.667,165.225a1.139,1.139,0,0,1,.234-.726.764.764,0,0,1,.63-.3.829.829,0,0,1,.663.269,1.129,1.129,0,0,1,.229.754,1.161,1.161,0,0,1-.239.771.841.841,0,0,1-.68.285.735.735,0,0,1-.62-.282,1.245,1.245,0,0,1-.216-.774m.37,0a1.039,1.039,0,0,0,.119.546.381.381,0,0,0,.347.194.474.474,0,0,0,.408-.189.909.909,0,0,0,.141-.55q0-.706-.521-.706a.415.415,0,0,0-.366.192.9.9,0,0,0-.128.514" transform="translate(-83.423 -136.971)" fill="#fff"/>
      <path id="Path_10" data-name="Path 10" d="M113.487,166.458l-.975-1.273v1.245h-.342v-2.01h.172l.947,1.214V164.42h.342v2.038Z" transform="translate(-93.853 -137.154)" fill="#fff"/>
      <path id="Path_11" data-name="Path 11" d="M124.46,164.419l-.151.287a.71.71,0,0,0-.194-.111.6.6,0,0,0-.226-.056.579.579,0,0,0-.466.2.8.8,0,0,0-.166.537.746.746,0,0,0,.166.514.574.574,0,0,0,.456.192.468.468,0,0,0,.313-.1v-.395h-.279v-.3h.635v.9a.923.923,0,0,1-.332.166,1.437,1.437,0,0,1-.4.058.872.872,0,0,1-.685-.284,1.078,1.078,0,0,1-.252-.748,1.056,1.056,0,0,1,.274-.756.974.974,0,0,1,.741-.292.839.839,0,0,1,.562.2" transform="translate(-102.788 -136.99)" fill="#fff"/>
      <rect id="Rectangle_26" data-name="Rectangle 26" width="0.358" height="2.01" transform="translate(22.083 27.266)" fill="#fff"/>
      <path id="Path_12" data-name="Path 12" d="M140.7,166.43l-.56-.856-.222.305v.551h-.358v-2.01h.358v.962l.68-.962h.408l-.63.877.753,1.133Z" transform="translate(-116.701 -137.154)" fill="#fff"/>
      <path id="Path_13" data-name="Path 13" d="M82.672,184.676l-.148.3a.526.526,0,0,0-.383-.119.5.5,0,0,0-.413.211.862.862,0,0,0-.166.534.8.8,0,0,0,.148.511.477.477,0,0,0,.4.191.536.536,0,0,0,.444-.2l.166.289a.829.829,0,0,1-.638.232.811.811,0,0,1-.655-.277,1.139,1.139,0,0,1-.234-.756,1.1,1.1,0,0,1,.259-.746.829.829,0,0,1,.663-.3.976.976,0,0,1,.552.141" transform="translate(-68.009 -153.932)" fill="#fff"/>
      <path id="Path_14" data-name="Path 14" d="M92.548,185.067v.469h.647v.305h-.647v.6h.909v.317H92.19v-2.01h1.267v.317Z" transform="translate(-77.186 -154.113)" fill="#fff"/>
      <path id="Path_15" data-name="Path 15" d="M102.966,186.651l-.539-.829-.227-.01v.841h-.37V184.64l.232-.01c.134,0,.244-.01.332-.01q.766,0,.766.592a.537.537,0,0,1-.106.332.58.58,0,0,1-.265.209l.594.905Zm-.766-1.7v.56a1.512,1.512,0,0,0,.153.008.654.654,0,0,0,.332-.061.265.265,0,0,0,.1-.245.214.214,0,0,0-.111-.207,1.034,1.034,0,0,0-.473-.05" transform="translate(-85.227 -154.004)" fill="#fff"/>
      <path id="Path_16" data-name="Path 16" d="M112.368,186.618l-.146-.408h-.691l-.141.408H111l.8-2.038h.156l.809,2.038Zm-.5-1.423-.242.743h.484Z" transform="translate(-92.877 -153.971)" fill="#fff"/>
      <path id="Path_17" data-name="Path 17" d="M123.884,186.76h-.345l-.211-1.081-.4,1.109H122.8l-.406-1.109-.216,1.081h-.345l.4-2.01h.189l.436,1.355.424-1.355h.189Z" transform="translate(-101.911 -154.113)" fill="#fff"/>
      <rect id="Rectangle_27" data-name="Rectangle 27" width="0.357" height="2.01" transform="translate(22.198 30.637)" fill="#fff"/>
      <path id="Path_18" data-name="Path 18" d="M141.1,184.676l-.148.3a.527.527,0,0,0-.385-.119.5.5,0,0,0-.411.211.853.853,0,0,0-.166.534.8.8,0,0,0,.149.511.476.476,0,0,0,.4.191.536.536,0,0,0,.444-.2l.166.289a.841.841,0,0,1-.64.232.816.816,0,0,1-.655-.277,1.148,1.148,0,0,1-.232-.756,1.1,1.1,0,0,1,.259-.746.829.829,0,0,1,.663-.3.982.982,0,0,1,.554.141" transform="translate(-116.751 -153.932)" fill="#fff"/>
      <path id="Path_19" data-name="Path 19" d="M102.211,205.087l-.149.287a.712.712,0,0,0-.194-.113.606.606,0,0,0-.226-.055.587.587,0,0,0-.468.2.811.811,0,0,0-.166.539.758.758,0,0,0,.166.514.58.58,0,0,0,.458.192.471.471,0,0,0,.313-.1v-.395h-.28v-.305h.637v.9a.9.9,0,0,1-.332.166,1.388,1.388,0,0,1-.4.058.867.867,0,0,1-.683-.282,1.083,1.083,0,0,1-.254-.749,1.056,1.056,0,0,1,.275-.756.978.978,0,0,1,.741-.29.839.839,0,0,1,.56.2" transform="translate(-84.228 -170.916)" fill="#fff"/>
      <path id="Path_20" data-name="Path 20" d="M112.6,207.088V205.08h.358v1.693h.909v.315Z" transform="translate(-94.211 -171.072)" fill="#fff"/>
      <path id="Path_21" data-name="Path 21" d="M122.126,206.948l-.148-.408H121.3l-.141.408h-.4l.8-2.038h.156l.809,2.038Zm-.5-1.424-.244.743h.484Z" transform="translate(-101.018 -170.93)" fill="#fff"/>
      <path id="Path_22" data-name="Path 22" d="M132.085,206.79l.131-.318a.733.733,0,0,0,.416.148c.211,0,.315-.075.315-.221a.308.308,0,0,0-.075-.2.966.966,0,0,0-.307-.209,1.54,1.54,0,0,1-.312-.191.509.509,0,0,1-.123-.177.6.6,0,0,1-.043-.229.5.5,0,0,1,.166-.386.632.632,0,0,1,.439-.154.815.815,0,0,1,.512.131l-.109.308a.663.663,0,0,0-.4-.136.27.27,0,0,0-.192.066.226.226,0,0,0-.068.166c0,.114.128.235.383.36a1.251,1.251,0,0,1,.292.181.57.57,0,0,1,.136.194.646.646,0,0,1,.045.245.5.5,0,0,1-.192.4.783.783,0,0,1-.516.166.924.924,0,0,1-.507-.144" transform="translate(-110.461 -170.883)" fill="#fff"/>
      <path id="Path_23" data-name="Path 23" d="M140.745,206.79l.133-.318a.728.728,0,0,0,.415.148c.211,0,.315-.075.315-.221a.308.308,0,0,0-.075-.2.975.975,0,0,0-.305-.209,1.494,1.494,0,0,1-.312-.191.5.5,0,0,1-.124-.177.6.6,0,0,1-.043-.229.5.5,0,0,1,.166-.386.632.632,0,0,1,.439-.154.815.815,0,0,1,.512.131l-.109.308a.663.663,0,0,0-.4-.136.27.27,0,0,0-.192.066.225.225,0,0,0-.068.166c0,.114.128.235.383.36a1.251,1.251,0,0,1,.292.181.544.544,0,0,1,.134.194.617.617,0,0,1,.048.245.5.5,0,0,1-.192.4.79.79,0,0,1-.517.166.924.924,0,0,1-.507-.144" transform="translate(-117.685 -170.883)" fill="#fff"/>
    </g>
  </g>
</svg>
