<svg xmlns="http://www.w3.org/2000/svg" width="32.859" height="32.713" viewBox="0 0 32.859 32.713">
  <g id="Group_39" data-name="Group 39" transform="translate(-1855.627 -912.333)">
    <ellipse id="Ellipse_1" data-name="Ellipse 1" cx="16.43" cy="16.356" rx="16.43" ry="16.356" transform="translate(1855.627 912.333)" fill="#8d7d51"/>
    <g id="Group_37" data-name="Group 37" transform="translate(1862.099 916.814)">
      <path id="Path_1" data-name="Path 1" d="M59.613,63.295A7.558,7.558,0,0,1,53.6,72.088a.513.513,0,0,1-.61-.5V65.227H43.931a.513.513,0,0,1,0-1.025h11.7a.513.513,0,0,1,0,1.025h-1.62v5.705a6.522,6.522,0,0,0-.334-12.614V57.28a.506.506,0,0,1,.11.011,7.715,7.715,0,0,1,1.161.354,7.574,7.574,0,0,1,4.664,5.65Z" transform="translate(-39.825 -52.551)" fill="#fff"/>
      <path id="Path_2" data-name="Path 2" d="M60.17.1a.513.513,0,0,1,.155.637L59.087,3.279a.513.513,0,1,1-.92-.45l.316-.647H50.428l.317.647a.513.513,0,0,1-.922.45Q49.206,2.01,48.585.74A.512.512,0,0,1,48.742.1a.461.461,0,0,1,.083-.049A.513.513,0,0,1,49.51.29c.135.291.278.578.419.868h9.053c.142-.289.282-.578.423-.867A.514.514,0,0,1,60.09.057.578.578,0,0,1,60.17.1Z" transform="translate(-44.498 -0.003)" fill="#fff"/>
      <path id="Path_3" data-name="Path 3" d="M76.485,247.753v2.312a.513.513,0,1,1-1.025,0v-.642H68.85v.642a.513.513,0,1,1-1.025,0v-2.312a.513.513,0,0,1,1.025,0v.641h6.61v-.642a.513.513,0,0,1,1.025,0Z" transform="translate(-62.198 -226.847)" fill="#fff"/>
      <path id="Path_4" data-name="Path 4" d="M161.807,58.28h0c-.035-.01-.073-.019-.11-.027a.513.513,0,0,1,.11-1.013Z" transform="translate(-147.952 -52.515)" fill="#fff"/>
      <path id="Path_5" data-name="Path 5" d="M73.582,57.792a.514.514,0,0,1-.4.5c-.036.008-.073.016-.108.026V57.28A.514.514,0,0,1,73.582,57.792Z" transform="translate(-67.01 -52.551)" fill="#fff"/>
      <path id="Path_6" data-name="Path 6" d="M73.178,223.766a.513.513,0,0,1-.108,1.013V223.74A.883.883,0,0,0,73.178,223.766Z" transform="translate(-67.01 -205.269)" fill="#fff"/>
      <path id="Path_7" data-name="Path 7" d="M5.722,71.022V72.06a.5.5,0,0,1-.11-.012A7.577,7.577,0,0,1,4.45,71.7a7.785,7.785,0,0,1-1.356-.7,7.553,7.553,0,0,1,2.519-13.7.5.5,0,0,1,.11-.011v1.039a6.522,6.522,0,0,0,0,12.7Z" transform="translate(0.338 -52.551)" fill="#fff"/>
      <path id="Path_8" data-name="Path 8" d="M89.248,165.421v-.452h-.4v.452H88.67v-1h.178v.392h.4v-.392h.175v1Z" transform="translate(-81.322 -150.847)" fill="#fff"/>
      <path id="Path_9" data-name="Path 9" d="M99.667,164.711a.567.567,0,0,1,.116-.362.381.381,0,0,1,.314-.148.413.413,0,0,1,.33.134.562.562,0,0,1,.114.376.578.578,0,0,1-.119.384.419.419,0,0,1-.338.142.366.366,0,0,1-.309-.14.62.62,0,0,1-.107-.386m.184,0a.517.517,0,0,0,.059.272.19.19,0,0,0,.173.1.236.236,0,0,0,.2-.094.452.452,0,0,0,.07-.274q0-.352-.259-.352a.206.206,0,0,0-.182.1.45.45,0,0,0-.064.256" transform="translate(-91.411 -150.645)" fill="#fff"/>
      <path id="Path_10" data-name="Path 10" d="M112.826,165.435l-.485-.634v.62h-.17v-1h.086l.471.6v-.6h.17v1.015Z" transform="translate(-102.882 -150.847)" fill="#fff"/>
      <path id="Path_11" data-name="Path 11" d="M123.668,164.321l-.075.143a.353.353,0,0,0-.1-.055.3.3,0,0,0-.112-.028.288.288,0,0,0-.232.1.4.4,0,0,0-.083.267.372.372,0,0,0,.083.256.286.286,0,0,0,.227.1.233.233,0,0,0,.156-.052v-.2H123.4V164.7h.316v.447a.46.46,0,0,1-.165.083.715.715,0,0,1-.2.029.434.434,0,0,1-.341-.141.537.537,0,0,1-.125-.372.526.526,0,0,1,.136-.376.485.485,0,0,1,.369-.145.418.418,0,0,1,.28.1" transform="translate(-112.709 -150.667)" fill="#fff"/>
      <rect id="Rectangle_26" data-name="Rectangle 26" width="0.178" height="1.001" transform="translate(11.163 13.573)" fill="#fff"/>
      <path id="Path_12" data-name="Path 12" d="M140.128,165.421l-.279-.426-.111.152v.274h-.178v-1h.178v.479l.338-.479h.2l-.314.437.375.564Z" transform="translate(-128.011 -150.847)" fill="#fff"/>
      <path id="Path_13" data-name="Path 13" d="M81.928,184.6l-.073.147a.262.262,0,0,0-.191-.059.248.248,0,0,0-.206.1.429.429,0,0,0-.083.266.4.4,0,0,0,.073.254.238.238,0,0,0,.2.095.267.267,0,0,0,.221-.1l.083.144a.413.413,0,0,1-.318.116.4.4,0,0,1-.326-.138.567.567,0,0,1-.116-.376.55.55,0,0,1,.129-.371.413.413,0,0,1,.33-.149.486.486,0,0,1,.275.07" transform="translate(-74.459 -169.3)" fill="#fff"/>
      <path id="Path_14" data-name="Path 14" d="M92.368,184.908v.234h.322v.152h-.322v.3h.452v.158H92.19v-1h.631v.158Z" transform="translate(-84.551 -169.498)" fill="#fff"/>
      <path id="Path_15" data-name="Path 15" d="M102.4,185.631l-.268-.413-.113,0v.419h-.184v-1l.116,0c.067,0,.121,0,.165,0q.381,0,.381.295a.267.267,0,0,1-.053.165.289.289,0,0,1-.132.1l.3.451Zm-.381-.846v.279a.748.748,0,0,0,.076,0,.325.325,0,0,0,.165-.031.132.132,0,0,0,.052-.122.106.106,0,0,0-.055-.1.514.514,0,0,0-.235-.025" transform="translate(-93.395 -169.379)" fill="#fff"/>
      <path id="Path_16" data-name="Path 16" d="M111.681,185.595l-.073-.2h-.344l-.07.2H111l.4-1.015h.078l.4,1.015Zm-.248-.708-.121.37h.241Z" transform="translate(-101.809 -169.342)" fill="#fff"/>
      <path id="Path_17" data-name="Path 17" d="M122.853,185.751h-.172l-.1-.538-.2.552h-.064l-.2-.552-.107.538h-.172l.2-1h.094l.217.674.211-.674h.094Z" transform="translate(-111.745 -169.498)" fill="#fff"/>
      <rect id="Rectangle_27" data-name="Rectangle 27" width="0.177" height="1.001" transform="translate(11.22 15.252)" fill="#fff"/>
      <path id="Path_18" data-name="Path 18" d="M140.357,184.6l-.073.147a.263.263,0,0,0-.192-.059.248.248,0,0,0-.2.1.424.424,0,0,0-.083.266.4.4,0,0,0,.074.254.237.237,0,0,0,.2.095.267.267,0,0,0,.221-.1l.083.144a.419.419,0,0,1-.319.116.406.406,0,0,1-.326-.138.572.572,0,0,1-.116-.376.55.55,0,0,1,.129-.371.413.413,0,0,1,.33-.149.489.489,0,0,1,.276.07" transform="translate(-128.066 -169.3)" fill="#fff"/>
      <path id="Path_19" data-name="Path 19" d="M101.418,204.99l-.074.143a.355.355,0,0,0-.1-.056.3.3,0,0,0-.112-.027.292.292,0,0,0-.233.1.4.4,0,0,0-.083.268.377.377,0,0,0,.083.256.289.289,0,0,0,.228.1.235.235,0,0,0,.156-.052v-.2h-.14v-.152h.317v.447a.445.445,0,0,1-.165.083.691.691,0,0,1-.2.029.432.432,0,0,1-.34-.14.539.539,0,0,1-.126-.373.526.526,0,0,1,.137-.376.487.487,0,0,1,.369-.144.418.418,0,0,1,.279.1" transform="translate(-92.297 -187.979)" fill="#fff"/>
      <path id="Path_20" data-name="Path 20" d="M112.6,206.08v-1h.178v.843h.452v.157Z" transform="translate(-103.276 -188.15)" fill="#fff"/>
      <path id="Path_21" data-name="Path 21" d="M121.44,205.925l-.073-.2h-.339l-.07.2h-.2l.4-1.015h.078l.4,1.015Zm-.248-.709-.121.37h.241Z" transform="translate(-110.763 -187.994)" fill="#fff"/>
      <path id="Path_22" data-name="Path 22" d="M132.082,205.818l.065-.158a.365.365,0,0,0,.207.073c.1,0,.157-.037.157-.11a.153.153,0,0,0-.037-.1.481.481,0,0,0-.153-.1.767.767,0,0,1-.155-.095.253.253,0,0,1-.061-.088.3.3,0,0,1-.021-.114.248.248,0,0,1,.083-.192.315.315,0,0,1,.219-.077.406.406,0,0,1,.255.065l-.054.154a.33.33,0,0,0-.2-.068.134.134,0,0,0-.1.033.112.112,0,0,0-.034.083c0,.057.064.117.191.179a.622.622,0,0,1,.145.09.284.284,0,0,1,.068.1.321.321,0,0,1,.022.122.248.248,0,0,1-.1.2.39.39,0,0,1-.257.083.46.46,0,0,1-.253-.072" transform="translate(-121.148 -187.943)" fill="#fff"/>
      <path id="Path_23" data-name="Path 23" d="M140.742,205.818l.066-.158a.363.363,0,0,0,.206.073c.1,0,.157-.037.157-.11a.153.153,0,0,0-.037-.1.485.485,0,0,0-.152-.1.744.744,0,0,1-.155-.095.248.248,0,0,1-.062-.088.3.3,0,0,1-.021-.114.248.248,0,0,1,.083-.192.315.315,0,0,1,.219-.077.406.406,0,0,1,.255.065l-.054.154a.33.33,0,0,0-.2-.068.134.134,0,0,0-.1.033.112.112,0,0,0-.034.083c0,.057.064.117.191.179a.622.622,0,0,1,.145.09.27.27,0,0,1,.067.1.307.307,0,0,1,.024.122.248.248,0,0,1-.1.2.393.393,0,0,1-.258.083.46.46,0,0,1-.253-.072" transform="translate(-129.093 -187.943)" fill="#fff"/>
    </g>
  </g>
</svg>
