<svg id="Group_64" data-name="Group 64" xmlns="http://www.w3.org/2000/svg" xmlns:xlink="http://www.w3.org/1999/xlink" width="80" height="50" viewBox="0 10 150.461 63.882">
  <g id="Group_63" class="hangaram" data-name="Group 63" transform="translate(0 0)" clip-path="url(#clip-path)">
    <path id="Path_82" data-name="Path 82" d="M6.242,5.388V4.98A2.187,2.187,0,0,0,4.26,3.026H6.886V1.764H4.152V.507H2.711V1.764H0V3.026H2.6A2.187,2.187,0,0,0,.622,4.98v.408c0,.986.984,2.033,2.81,2.033s2.81-1.048,2.81-2.033M2.027,5.012c0-.333.5-.815,1.405-.815s1.4.482,1.4.815v.344c0,.333-.5.815-1.4.815s-1.405-.482-1.405-.815Z" transform="translate(0 -0.229)" fill="#1a1818"/>
    <path id="Path_83" data-name="Path 83" d="M15.355.684H13.913V8.436h1.442V4.954h1.672V3.682H15.355Z" transform="translate(-6.295 -0.309)" fill="#1a1818"/>
    <path id="Path_84" data-name="Path 84" d="M5.009,13.441H3.555v3.324H11V15.494H5.009Z" transform="translate(-1.608 -6.081)" fill="#1a1818"/>
    <path id="Path_85" data-name="Path 85" d="M20.365,3.336h3.814a4.579,4.579,0,0,1-.336,1.025,5.484,5.484,0,0,1-.712,1.155,6.682,6.682,0,0,1-1.382,1.275,15.2,15.2,0,0,1-1.7,1l-.344.175.943,1.094.211-.1a12.156,12.156,0,0,0,1.9-1.184,8.89,8.89,0,0,0,1.558-1.466A6.891,6.891,0,0,0,25.4,4.357,5.923,5.923,0,0,0,25.8,2.346v-.3h-5.44Z" transform="translate(-8.916 -0.924)" fill="#1a1818"/>
    <path id="Path_86" data-name="Path 86" d="M35.225.787H33.748V11.2h1.477V5.174h2.113V3.881H35.225Z" transform="translate(-15.268 -0.356)" fill="#1a1818"/>
    <path id="Path_87" data-name="Path 87" d="M48.107,6.673,47.968,5.43l-.3.032a40.6,40.6,0,0,1-4.883.181V4.851h3.893v-3.3H41.355V2.819h3.893V3.6H41.355V6.914h.3a52.894,52.894,0,0,0,6.149-.206Z" transform="translate(-18.71 -0.7)" fill="#1a1818"/>
    <path id="Path_88" data-name="Path 88" d="M52.85,3.188H51.178V.684H49.736V7.057h-5.72V11.1h7.162V4.46H52.85ZM45.434,8.34H49.76V9.819H45.434Z" transform="translate(-19.914 -0.309)" fill="#1a1818"/>
    <path id="Path_89" data-name="Path 89" d="M70.3,1.469H62.677V5.535H70.3Zm-6.2,1.251h4.768V4.274H64.107Z" transform="translate(-28.356 -0.665)" fill="#1a1818"/>
    <path id="Path_90" data-name="Path 90" d="M64.087,13.068H62.634V16.6h7.9V15.325H64.087Z" transform="translate(-28.337 -5.912)" fill="#1a1818"/>
    <path id="Path_91" data-name="Path 91" d="M59.93,11.081h4.717v2.074h1.442V11.081h4.478V9.83H59.93Z" transform="translate(-27.113 -4.447)" fill="#1a1818"/>
    <path id="Path_92" data-name="Path 92" d="M89.238,3.337V1.862H81.48V3.123h6.293v.46a13.7,13.7,0,0,1-.308,2.782h-7.3V7.626h4.585v4.02H86.2V7.626h4.6V6.365H88.951a16.165,16.165,0,0,0,.286-3.028" transform="translate(-36.268 -0.842)" fill="#1a1818"/>
    <path id="Path_93" data-name="Path 93" d="M109.025,5.589c1.811-.121,2.842-.712,2.842-1.642V3.688c0-.752-.664-1.276-1.87-1.513h2.586V.924h-3.558V0h-1.453V.924h-3.547V2.175h2.586c-1.206.237-1.87.761-1.87,1.513v.258c0,.93,1.031,1.521,2.842,1.642v.353h-4.6V7.192h3.972c-1.492.22-2.347.832-2.347,1.729v.332c0,1.146,1.38,1.829,3.694,1.829S112,10.4,112,9.253V8.931c0-.9-.856-1.518-2.351-1.739h3.975V5.941h-4.6Zm1.556,3.386V9.21c0,.306-.851.622-2.277.622s-2.276-.316-2.276-.622V8.974c0-.3.851-.611,2.276-.611s2.277.31,2.277.611m-.132-5.243V3.9c0,.123-.508.46-2.145.46s-2.145-.337-2.145-.46V3.732c0-.123.509-.46,2.145-.46s2.145.337,2.145.46" transform="translate(-46.593 0)" fill="#1a1818"/>
    <path id="Path_94" data-name="Path 94" d="M128.506,7.7a20.13,20.13,0,0,1-3.309.211H125V3.685h3.272V2.391h-4.726V9.209h1.724a22.143,22.143,0,0,0,3.425-.229l.3-.044-.18-1.28Z" transform="translate(-55.894 -1.082)" fill="#1a1818"/>
    <path id="Path_95" data-name="Path 95" d="M136.131,4.219h-.983V.888h-1.442v9.74h1.442V5.5h.983v5.611h1.442V.683h-1.442Z" transform="translate(-60.491 -0.309)" fill="#1a1818"/>
    <path id="Path_96" data-name="Path 96" d="M152.45.684V3.113h-2.269V4.385h2.269V6.778h-5.84v4.313h7.282V.684Zm-4.422,7.377h4.445V9.808h-4.445Z" transform="translate(-66.329 -0.309)" fill="#1a1818"/>
    <path id="Path_97" data-name="Path 97" d="M146.165,5.279c.171.153.443.368.882.687.332.239.9.625,1.428.948l.211.13.913-.983-.32-.192c-.62-.372-1.288-.816-1.7-1.129-.706-.548-.743-.758-.743-1.286V3.025h2.341V1.764H142.92V3.025h2.46v.46a1.41,1.41,0,0,1-.614,1.246A16.921,16.921,0,0,1,142.749,6.2l-.309.2.94.983.21-.136c.542-.349,1.367-.937,1.8-1.285a7.429,7.429,0,0,0,.771-.679" transform="translate(-64.442 -0.798)" fill="#1a1818"/>
    <line id="Line_9" data-name="Line 9" transform="translate(43.71 48.199)" fill="#1a1818"/>
    <path id="Path_98" data-name="Path 98" d="M138.906,69.192h0a2.4,2.4,0,1,1-4.808,0V52.9a6.865,6.865,0,0,1,6.867-6.867h2.5a2.4,2.4,0,0,1,2.366,2.024,2.36,2.36,0,0,1,.039.381,2.4,2.4,0,0,1-2.4,2.4h-2.522a2.038,2.038,0,0,0-2.038,2.038v16.31" transform="translate(-60.668 -20.827)" fill="#1a1818"/>
    <path id="Path_99" data-name="Path 99" d="M94.381,67.022s8.275-6.293,12.8-11.364a13.787,13.787,0,0,0,2.705-3.932H95.878a2.4,2.4,0,0,1,0-4.808h14.069a4.808,4.808,0,0,1,4.808,4.808,5.823,5.823,0,0,1-.681,2.458c-3.163,6.524-16.343,16.25-16.343,16.25-.772.613-1.107.871-1.852.871a2.4,2.4,0,0,1-1.5-4.284" transform="translate(-42.289 -21.227)" fill="#1a1818"/>
    <path id="Path_100" data-name="Path 100" d="M193.981,71.722a4.862,4.862,0,0,0-4.587-4.588v-.013h-3.813V54.759a4.218,4.218,0,0,1,4.219-4.219H191a2.4,2.4,0,0,0,0-4.809H189.56a8.806,8.806,0,0,0-8.788,8.788V67.168a4.8,4.8,0,0,0-1.222.348,2.4,2.4,0,0,0-2.188-1.418H164.318a1.772,1.772,0,0,1-1.773-1.773V63.008a1.773,1.773,0,0,1,1.773-1.773h8.7v0a6.579,6.579,0,0,0,6.579-6.579V52.8a6.576,6.576,0,0,0-4.808-6.331l-1.771-.249-13.18,0a2.4,2.4,0,0,0,0,4.808h13.178a1.773,1.773,0,0,1,1.773,1.773v1.851a1.773,1.773,0,0,1-1.773,1.773h-9.433a5.844,5.844,0,0,0-5.844,5.845v2.791a5.844,5.844,0,0,0,5.844,5.844h13.094a4.867,4.867,0,0,0-.117.815c0,.09-.014.179-.014.269v7.979h.014a4.862,4.862,0,0,0,4.587,4.587v.014h7.979c.091,0,.18-.008.269-.014a4.862,4.862,0,0,0,4.587-4.587c.005-.09.014-.179.014-.269v-7.71c0-.091-.008-.18-.014-.269m-4.587,3.122v5.126h-8.249V71.722h8.249Z" transform="translate(-71.225 -20.69)" fill="#1a1818"/>
    <path id="Path_101" data-name="Path 101" d="M80.355,46.036H77.411a6.37,6.37,0,0,0-6.369,6.369V69.027a2.4,2.4,0,0,0,2.4,2.4,2.355,2.355,0,0,0,2.4-2.4V52.944a2.1,2.1,0,0,1,2.1-2.1h2.4a2.4,2.4,0,1,0,0-4.808" transform="translate(-32.141 -20.827)" fill="#1a1818"/>
    <path id="Path_102" data-name="Path 102" d="M40.175,37.855V29.036a2.4,2.4,0,0,0-4.808,0v8.581H26.994a2.4,2.4,0,0,0,0,4.808h1.06a12.244,12.244,0,0,0,13.5,19.1v6.037a8.3,8.3,0,0,0,8.3,8.3h8.418a2.4,2.4,0,1,0,0-4.808H49.857a3.492,3.492,0,0,1-3.492-3.492V60.249c0-.069-.014-.133-.02-.2a2.4,2.4,0,0,0-.375-1.086,12.24,12.24,0,0,0-5.8-21.107M30.324,49.872a7.447,7.447,0,1,1,7.448,7.447,7.448,7.448,0,0,1-7.448-7.447" transform="translate(-11.125 -12.049)" fill="#1a1818"/>
    <path id="Path_103" data-name="Path 103" d="M212.184,21a4.255,4.255,0,0,1,4.255,4.255c0,4.145-4.255,6.854-4.255,6.854s-4.255-2.708-4.255-6.854A4.255,4.255,0,0,1,212.184,21" transform="translate(-94.07 -9.503)" fill="#1a1818"/>
    <path id="Path_104" data-name="Path 104" d="M257.541,54.277a8.043,8.043,0,0,1-10.063,5.3c-7.483-2.32-9.991-11.517-9.991-11.517s7.27-6.167,14.753-3.848a8.043,8.043,0,0,1,5.3,10.064" transform="translate(-107.443 -19.767)" fill="#1a1818"/>
    <path id="Path_105" data-name="Path 105" d="M237.114,25.758a5.362,5.362,0,0,1,0,7.583c-3.693,3.693-9.9,2.315-9.9,2.315s-1.379-6.2,2.314-9.9a5.363,5.363,0,0,1,7.583,0" transform="translate(-102.683 -10.943)" fill="#1a1818"/>
    <path id="Path_106" data-name="Path 106" d="M193.374,31a3.4,3.4,0,0,1,4.814,0c2.345,2.345,1.47,6.284,1.47,6.284s-3.939.876-6.284-1.47a3.4,3.4,0,0,1,0-4.814" transform="translate(-87.035 -13.574)" fill="#1a1818"/>
  </g>
</svg>
