<svg xmlns="http://www.w3.org/2000/svg" width="33.887" height="33.887" viewBox="0 0 33.887 33.887">
  <g id="Group_40" data-name="Group 40" transform="translate(-1855 -994)">
    <circle id="Ellipse_5" data-name="Ellipse 5" cx="12" cy="12" r="12" transform="translate(1860 999)" fill="#fff"/>
    <path id="Path_49" data-name="Path 49" d="M213.486,210.243A3.243,3.243,0,1,1,210.243,207,3.243,3.243,0,0,1,213.486,210.243Zm0,0" transform="translate(1661.7 800.7)" fill="#8d7d51"/>
    <path id="Path_50" data-name="Path 50" d="M151.046,137.727a3.222,3.222,0,0,0-1.846-1.846,5.383,5.383,0,0,0-1.806-.335c-1.026-.047-1.334-.057-3.932-.057s-2.906.01-3.932.057a5.387,5.387,0,0,0-1.806.335,3.223,3.223,0,0,0-1.847,1.846,5.384,5.384,0,0,0-.335,1.807c-.047,1.026-.057,1.334-.057,3.932s.01,2.905.057,3.932a5.382,5.382,0,0,0,.335,1.806,3.222,3.222,0,0,0,1.846,1.846,5.377,5.377,0,0,0,1.807.335c1.026.047,1.333.057,3.931.057s2.906-.01,3.932-.057a5.377,5.377,0,0,0,1.807-.335,3.222,3.222,0,0,0,1.846-1.846,5.388,5.388,0,0,0,.335-1.806c.047-1.026.057-1.334.057-3.932s-.01-2.906-.057-3.932A5.376,5.376,0,0,0,151.046,137.727Zm-7.584,10.734a5,5,0,1,1,5-5A5,5,0,0,1,143.461,148.461Zm5.194-9.022a1.168,1.168,0,1,1,1.168-1.168A1.168,1.168,0,0,1,148.655,139.439Zm0,0" transform="translate(1728.482 867.479)" fill="#8d7d51"/>
    <path id="Path_51" data-name="Path 51" d="M16.944,0A16.944,16.944,0,1,0,33.887,16.944,16.945,16.945,0,0,0,16.944,0Zm9.671,20.955a7.138,7.138,0,0,1-.452,2.362,4.975,4.975,0,0,1-2.845,2.845,7.143,7.143,0,0,1-2.361.452c-1.038.047-1.369.059-4.011.059s-2.974-.011-4.011-.059a7.143,7.143,0,0,1-2.361-.452,4.975,4.975,0,0,1-2.845-2.845,7.136,7.136,0,0,1-.452-2.361c-.048-1.038-.059-1.369-.059-4.011s.011-2.974.059-4.011a7.139,7.139,0,0,1,.452-2.362,4.978,4.978,0,0,1,2.846-2.845,7.145,7.145,0,0,1,2.362-.452c1.038-.047,1.369-.059,4.011-.059s2.974.011,4.011.059a7.146,7.146,0,0,1,2.362.452,4.976,4.976,0,0,1,2.845,2.846,7.137,7.137,0,0,1,.452,2.362c.047,1.038.058,1.369.058,4.011S26.662,19.917,26.614,20.955Zm0,0" transform="translate(1855 994)" fill="#8d7d51"/>
  </g>
</svg>
